<?xml version="1.0" standalone="no"?>
<!DOCTYPE svg PUBLIC "-//W3C//DTD SVG 20010904//EN" "http://www.w3.org/TR/2001/REC-SVG-20010904/DTD/svg10.dtd">
<svg xmlns="http://www.w3.org/2000/svg" version="1.0" width="1280" height="1280" viewBox="0 0 1280.000000 1280.000000" preserveAspectRatio="xMidYMid meet">

<g transform="translate(0.000000,1400.000000) scale(0.100000,-0.100000)" fill="#ffffff" stroke="none">
<path d="M5763 10528 c-21 -18 -46 -40 -55 -49 -16 -14 2 -47 283 -498 261 -418 300 -486 291 -504 -5 -12 -645 -1041 -1421 -2287 l-1411 -2265 1486 -3 c817 -1 2151 -1 2964 0 l1479 3 -12 22 c-20 36 -113 186 -233 373 -129 202 -1354 2140 -2103 3328 -282 447 -515 821 -518 830 -2 11 114 209 296 506 166 269 301 490 301 492 0 2 -27 21 -60 43 -58 39 -90 44 -90 15 0 -8 -4 -14 -10 -14 -5 0 -24 -24 -41 -52 -31 -53 -64 -107 -284 -459 l-120 -192 -3 372 -2 371 -90 0 -90 0 -2 -387 -3 -387 -80 123 c-96 148 -122 189 -137 219 -6 12 -15 22 -20 22 -4 0 -8 4 -8 10 0 17 -229 368 -254 389 -12 10 -21 6 -53 -21z m768 -1398 c5 0 9 -7 9 -15 0 -8 4 -15 9 -15 5 0 12 -11 15 -25 4 -14 11 -25 16 -25 6 0 10 -7 10 -15 0 -8 5 -15 10 -15 6 0 10 -6 10 -14 0 -8 6 -21 13 -28 6 -7 21 -30 32 -50 11 -21 23 -38 26 -38 4 0 9 -10 13 -23 3 -12 14 -32 24 -43 11 -11 23 -30 26 -42 4 -12 12 -22 17 -22 5 0 9 -7 9 -15 0 -8 5 -15 10 -15 6 0 10 -6 10 -14 0 -8 6 -21 13 -28 18 -20 37 -50 43 -70 4 -10 10 -18 14 -18 4 0 10 -8 14 -17 6 -21 25 -51 44 -71 6 -7 12 -18 12 -24 0 -5 11 -23 25 -40 14 -16 25 -35 25 -43 0 -7 6 -18 14 -24 8 -7 43 -59 78 -117 35 -57 75 -123 90 -147 15 -23 34 -56 43 -74 9 -18 23 -37 31 -44 8 -6 14 -16 14 -21 0 -5 15 -33 33 -61 32 -48 230 -367 252 -405 6 -10 46 -75 90 -145 44 -70 85 -135 90 -145 6 -10 69 -112 140 -227 72 -115 356 -576 631 -1025 l502 -815 -82 -7 c-44 -3 -189 -6 -322 -7 -240 -1 -241 -1 -251 22 -12 26 -1665 2950 -1757 3107 l-61 105 -2 395 c0 217 1 387 4 378 2 -10 9 -18 14 -18z m-223 -450 l-3 -265 -294 -525 c-161 -289 -342 -610 -401 -715 -59 -104 -164 -291 -232 -415 -69 -124 -219 -391 -333 -595 -115 -203 -270 -480 -345 -615 -75 -135 -157 -280 -180 -322 l-44 -78 -313 0 c-172 0 -313 3 -313 6 0 3 552 904 1228 2002 l1227 1997 3 -105 c2 -58 2 -224 0 -370z m202 -660 c35 -63 111 -198 170 -300 59 -102 158 -278 221 -392 62 -113 117 -204 121 -202 4 3 5 -3 1 -12 -4 -10 -2 -15 4 -11 5 3 10 0 10 -7 0 -10 359 -667 493 -901 12 -22 62 -112 111 -200 48 -88 166 -302 262 -475 l175 -315 -840 -3 c-462 -1 -1214 -1 -1672 0 l-833 3 105 185 c57 102 438 767 845 1478 596 1041 743 1290 753 1280 7 -7 40 -65 74 -128z"/>
<path d="M6247 7158 c-6 -218 -16 -293 -56 -398 -12 -30 -21 -64 -21 -75 0 -11 -8 -33 -18 -50 -10 -16 -22 -43 -26 -60 -4 -16 -19 -50 -33 -74 l-26 -44 -38 43 c-22 24 -39 48 -39 54 0 11 -93 116 -103 116 -6 0 -19 -36 -48 -140 -16 -57 -22 -115 -26 -245 -6 -208 6 -279 73 -414 115 -232 379 -395 607 -375 40 3 74 10 75 15 2 5 11 9 21 9 32 0 185 110 252 180 71 75 132 179 156 264 19 72 27 274 15 384 -9 74 -58 303 -69 321 -4 7 -95 -99 -123 -143 -43 -66 -57 -66 -65 2 -11 89 -35 190 -67 277 -31 85 -109 239 -134 265 -8 8 -47 55 -86 105 -66 84 -107 125 -123 125 -4 0 -16 11 -27 25 -11 14 -26 25 -34 25 -8 0 -14 5 -14 10 0 6 -4 10 -9 10 -4 0 -11 -96 -14 -212z"/>
</g>
</svg>