<?xml version="1.0" encoding="utf-8"?>
<svg viewBox="0 0 94.043 93.88" xmlns="http://www.w3.org/2000/svg">
    <g id="SvgjsG1014" featurekey="rZF8Vg-0" fill="#3fc1c9" transform="matrix(1, 0, 0, 1, -3.1378278732299805, -3.1378278732299805)">
        <path xmlns="http://www.w3.org/2000/svg" d="M17.5041275,35.7431297c-1.3343868,8.6112938,0.5216618,17.1337776,5.0932598,23.3820763  c3.514101,4.8010101,8.4125443,7.9051132,13.7960033,8.738472c5.6766281,0.8803635,11.2528-0.4285355,15.7024422-3.6848221  c1.2481613-0.9118309,2.3596039-1.9456711,3.3257027-3.0756493c-2.2215347,0.9782219-4.8139458,1.2666473-7.6252594,0.8312111  c-11.7167435-1.81633-19.6727276-13.4636116-17.7357349-25.9645157c0.9339237-6.0297165,4.3842182-11.4972458,9.7137356-15.3967743  c6.7678566-4.9519033,15.9534111-6.9700003,25.2009888-5.5369406c7.4736099,1.158433,17.6696701,5.9637556,25.5593109,15.2126837  c0,0-22.8349762-39.4207916-56.1144981-20.3555756C23.6889954,16.0402775,18.6534538,28.3230343,17.5041275,35.7431297z"/>
        <path xmlns="http://www.w3.org/2000/svg" d="M82.5444794,65.2562332c1.6589203-8.5548134,0.1250305-17.1406708-4.2073517-23.5571098  c-3.330925-4.9307785-8.1085968-8.2168121-13.4566498-9.2532387c-5.639122-1.0937653-11.260994,0.0038795-15.8300591,3.0911674  c-1.2817879,0.8631134-2.4307365,1.8538399-3.4404335,2.9467392c2.2569427-0.8937225,4.8587837-1.083847,7.6516113-0.5423546  c11.639946,2.2565117,19.1514435,14.1956596,16.7440948,26.6155167c-1.1610718,5.9891891-4.815239,11.3235016-10.2879944,15.0186768  c-6.9493065,4.6923676-16.2047043,6.3638382-25.3924103,4.5819931C26.901741,82.7185287,16.8940315,77.531662,9.358448,67.9917221  c0,0,21.331213,40.2545929,55.3068428,22.4577484C75.6210403,84.7116241,81.115303,72.6280441,82.5444794,65.2562332z"/>
        <path xmlns="http://www.w3.org/2000/svg" d="M35.7256317,82.8797684c8.6108131,1.3343353,17.1332397-0.5216599,23.3815918-5.0933075  c4.8010101-3.5136719,7.9046249-8.4129791,8.7393951-13.7964401c0.8790588-5.6761932-0.4294586-11.2527962-3.6857452-15.7020111  c-0.912262-1.2481079-1.9456673-2.3595467-3.0760269-3.326561c0.9786568,2.2224503,1.2674561,4.8148079,0.8312111,7.6257439  c-1.8159523,11.7171211-13.4632301,19.6730995-25.9645691,17.73563c-6.0292854-0.9338226-11.4972458-4.3845444-15.3959103-9.713253  c-4.9519043-6.7678032-6.9708633-15.9537888-5.5373726-25.2014236c1.1584339-7.4735546,5.9637547-17.6696663,15.2126827-25.5592575  c0,0-39.420845,22.8349762-20.3560066,56.1148262C16.0222969,76.6948471,28.3046761,81.7299576,35.7256317,82.8797684z"/>
        <path xmlns="http://www.w3.org/2000/svg" d="M90.4318619,35.7181244c-5.7382202-10.9553223-17.8222275-16.4500122-25.193985-17.8787613  c-8.5544395-1.6589699-17.1406746-0.1245956-23.5566788,4.2073517c-4.9308357,3.3308735-8.2168694,8.1081715-9.253727,13.4567108  c-1.0937634,5.6395493,0.0038795,11.2609901,3.0911674,15.8300552c0.8631134,1.2821655,1.8538399,2.4311142,2.946743,3.4403763  c-0.8941536-2.2569389-1.0837975-4.8587799-0.5423584-7.6516075c2.2565117-11.6399498,14.1961441-19.1514435,26.6150856-16.7440414  c5.9896774,1.1614513,11.3239899,4.81567,15.019104,10.288372c4.6928558,6.9488754,6.3634644,16.2042694,4.582489,25.391983  c-1.4395828,7.423111-6.6264496,17.4308167-16.1668243,24.9668884  C67.9728775,91.0254517,108.2283325,69.6942368,90.4318619,35.7181244z"/>
    </g>
</svg>