<?xml version="1.0" encoding="UTF-8"?>
<!DOCTYPE svg PUBLIC "-//W3C//DTD SVG 1.1//EN" "http://www.w3.org/Graphics/SVG/1.1/DTD/svg11.dtd">
<svg xmlns="http://www.w3.org/2000/svg" version="1.1" width="512px" height="512px" style="shape-rendering:geometricPrecision; text-rendering:geometricPrecision; image-rendering:optimizeQuality; fill-rule:evenodd; clip-rule:evenodd" xmlns:xlink="http://www.w3.org/1999/xlink">
<g><path style="opacity:0.997" fill="#e17d43" d="M 216.5,-0.5 C 218.167,-0.5 219.833,-0.5 221.5,-0.5C 195.055,45.3896 184.721,94.723 190.5,147.5C 185.99,149.559 181.323,151.226 176.5,152.5C 173.348,153.041 170.848,152.041 169,149.5C 167.768,144.279 167.101,138.946 167,133.5C 164.166,129.583 160.666,128.749 156.5,131C 131.794,159.855 100.461,176.355 62.5,180.5C 56.9662,180.449 51.6329,179.449 46.5,177.5C 36.2084,169.925 32.3751,159.925 35,147.5C 51.2121,92.6263 84.3788,51.4597 134.5,24C 160.464,10.8414 187.798,2.67472 216.5,-0.5 Z"/></g>
<g><path style="opacity:0.996" fill="#e58e5a" d="M 221.5,-0.5 C 233.833,-0.5 246.167,-0.5 258.5,-0.5C 337.748,9.26461 394.915,49.9313 430,121.5C 434.721,132.327 438.221,143.493 440.5,155C 439.713,164.946 435.047,172.446 426.5,177.5C 419.984,179.269 413.317,179.936 406.5,179.5C 380.237,176.533 356.904,166.699 336.5,150C 329.803,142.968 322.803,136.302 315.5,130C 311.975,129.342 309.141,130.509 307,133.5C 306.667,138.167 306.333,142.833 306,147.5C 305.417,149.002 304.584,150.335 303.5,151.5C 297.2,153.114 291.2,152.28 285.5,149C 266.056,139.889 251.556,125.723 242,106.5C 238.333,103.833 234.667,103.833 231,106.5C 222.006,124.661 208.506,138.327 190.5,147.5C 184.721,94.723 195.055,45.3896 221.5,-0.5 Z"/></g>
<g><path style="opacity:0.999" fill="#fedece" d="M 406.5,179.5 C 407.919,180.451 409.585,180.784 411.5,180.5C 415.603,205.549 415.269,230.549 410.5,255.5C 405.555,277.715 396.555,298.048 383.5,316.5C 377.664,312.856 371.664,309.356 365.5,306C 360.499,304.056 355.499,302.223 350.5,300.5C 324.329,295.723 301.662,302.39 282.5,320.5C 269.26,320.925 256.593,323.592 244.5,328.5C 235.726,332.053 227.393,336.386 219.5,341.5C 197.028,320.915 181.361,295.915 172.5,266.5C 188.025,254.074 188.359,241.241 173.5,228C 170.439,225.965 167.105,224.799 163.5,224.5C 164.122,223.373 164.955,222.373 166,221.5C 166.667,215.167 166.667,208.833 166,202.5C 165.487,201.473 164.987,200.473 164.5,199.5C 164.945,184.495 167.445,169.828 172,155.5C 173.31,154.103 174.81,153.103 176.5,152.5C 181.323,151.226 185.99,149.559 190.5,147.5C 208.506,138.327 222.006,124.661 231,106.5C 234.667,103.833 238.333,103.833 242,106.5C 251.556,125.723 266.056,139.889 285.5,149C 291.2,152.28 297.2,153.114 303.5,151.5C 304.584,150.335 305.417,149.002 306,147.5C 306.333,142.833 306.667,138.167 307,133.5C 309.141,130.509 311.975,129.342 315.5,130C 322.803,136.302 329.803,142.968 336.5,150C 356.904,166.699 380.237,176.533 406.5,179.5 Z"/></g>
<g><path style="opacity:0.998" fill="#fecdbe" d="M 176.5,152.5 C 174.81,153.103 173.31,154.103 172,155.5C 167.445,169.828 164.945,184.495 164.5,199.5C 154.114,196.202 149.781,200.202 151.5,211.5C 151.576,215.217 151.909,218.883 152.5,222.5C 139.024,222.981 129.524,229.314 124,241.5C 122.953,256.48 129.787,265.98 144.5,270C 154.2,271.383 163.534,270.217 172.5,266.5C 181.361,295.915 197.028,320.915 219.5,341.5C 206.11,352.545 195.777,365.879 188.5,381.5C 188.389,380.883 188.056,380.383 187.5,380C 173.858,375.843 160.524,371.01 147.5,365.5C 114.257,346.754 89.4233,320.087 73,285.5C 68.7223,275.834 65.5556,265.834 63.5,255.5C 58.5855,230.578 58.2522,205.578 62.5,180.5C 100.461,176.355 131.794,159.855 156.5,131C 160.666,128.749 164.166,129.583 167,133.5C 167.101,138.946 167.768,144.279 169,149.5C 170.848,152.041 173.348,153.041 176.5,152.5 Z"/></g>
<g><path style="opacity:0.985" fill="#ffb09e" d="M 46.5,177.5 C 51.6329,179.449 56.9662,180.449 62.5,180.5C 58.2522,205.578 58.5855,230.578 63.5,255.5C 40.4277,256.888 25.5944,246.555 19,224.5C 16.2736,201.755 25.4402,186.088 46.5,177.5 Z"/></g>
<g><path style="opacity:0.989" fill="#fecdbe" d="M 426.5,177.5 C 447.126,185.721 456.292,201.054 454,223.5C 450.269,240.231 440.103,250.731 423.5,255C 419.179,255.499 414.846,255.666 410.5,255.5C 415.269,230.549 415.603,205.549 411.5,180.5C 409.585,180.784 407.919,180.451 406.5,179.5C 413.317,179.936 419.984,179.269 426.5,177.5 Z"/></g>
<g><path style="opacity:1" fill="#364252" d="M 164.5,199.5 C 164.987,200.473 165.487,201.473 166,202.5C 166.667,208.833 166.667,215.167 166,221.5C 164.955,222.373 164.122,223.373 163.5,224.5C 159.303,226.302 155.636,225.635 152.5,222.5C 151.909,218.883 151.576,215.217 151.5,211.5C 149.781,200.202 154.114,196.202 164.5,199.5 Z"/></g>
<g><path style="opacity:1" fill="#364353" d="M 320.5,222.5 C 316.935,225.539 312.935,226.205 308.5,224.5C 308.013,223.527 307.513,222.527 307,221.5C 306.333,214.833 306.333,208.167 307,201.5C 312.021,196.083 316.688,196.416 321,202.5C 321.756,209.217 321.589,215.883 320.5,222.5 Z"/></g>
<g><path style="opacity:1" fill="#354252" d="M 225.5,211.5 C 232.508,211.334 239.508,211.5 246.5,212C 256.215,213.042 260.882,218.375 260.5,228C 259.589,247.249 249.589,256.249 230.5,255C 214.54,247.579 209.04,235.413 214,218.5C 217.225,214.979 221.058,212.646 225.5,211.5 Z"/></g>
<g><path style="opacity:1" fill="#fea1ac" d="M 152.5,222.5 C 155.636,225.635 159.303,226.302 163.5,224.5C 167.105,224.799 170.439,225.965 173.5,228C 188.359,241.241 188.025,254.074 172.5,266.5C 163.534,270.217 154.2,271.383 144.5,270C 129.787,265.98 122.953,256.48 124,241.5C 129.524,229.314 139.024,222.981 152.5,222.5 Z"/></g>
<g><path style="opacity:1" fill="#fea1ac" d="M 320.5,222.5 C 336.057,223.256 345.724,231.089 349.5,246C 347.643,259.525 339.976,267.525 326.5,270C 310.53,273.355 298.364,268.188 290,254.5C 286.713,238.749 292.88,228.749 308.5,224.5C 312.935,226.205 316.935,225.539 320.5,222.5 Z"/></g>
<g><path style="opacity:0.999" fill="#d8d8fa" d="M 350.5,300.5 C 328.097,340.169 317.097,382.835 317.5,428.5C 309.435,438.605 309.768,448.605 318.5,458.5C 319.929,473.847 322.929,488.847 327.5,503.5C 319.849,506.506 312.182,509.173 304.5,511.5C 297.833,511.5 291.167,511.5 284.5,511.5C 265.608,506.939 251.274,496.272 241.5,479.5C 235.892,464.799 235.059,449.799 239,434.5C 243.233,425.931 247.9,417.598 253,409.5C 253.667,406.833 254.333,404.167 255,401.5C 252.346,370.293 261.512,343.293 282.5,320.5C 301.662,302.39 324.329,295.723 350.5,300.5 Z"/></g>
<g><path style="opacity:0.998" fill="#f1f1fa" d="M 350.5,300.5 C 355.499,302.223 360.499,304.056 365.5,306C 371.664,309.356 377.664,312.856 383.5,316.5C 384.5,317.833 385.5,319.167 386.5,320.5C 407.276,342.988 416.442,369.655 414,400.5C 414.539,403.529 415.206,406.529 416,409.5C 419.27,415.764 422.936,421.764 427,427.5C 434.407,445.227 434.24,462.894 426.5,480.5C 417.74,497.253 404.073,507.587 385.5,511.5C 378.5,511.5 371.5,511.5 364.5,511.5C 357.435,509.531 350.435,507.031 343.5,504C 338.19,502.334 332.857,502.168 327.5,503.5C 322.929,488.847 319.929,473.847 318.5,458.5C 330.8,467.215 342.3,466.215 353,455.5C 357.97,448.139 358.637,440.473 355,432.5C 352.441,429.469 349.274,427.302 345.5,426C 337.833,425.333 330.167,425.333 322.5,426C 320.807,426.847 319.14,427.68 317.5,428.5C 317.097,382.835 328.097,340.169 350.5,300.5 Z"/></g>
<g><path style="opacity:0.994" fill="#b8c6fb" d="M 386.5,320.5 C 399.623,320.525 412.29,322.858 424.5,327.5C 435.661,350.151 440.827,374.151 440,399.5C 447.813,410.46 453.48,422.46 457,435.5C 459.316,449.956 458.816,464.289 455.5,478.5C 446.039,481.58 436.373,482.247 426.5,480.5C 434.24,462.894 434.407,445.227 427,427.5C 422.936,421.764 419.27,415.764 416,409.5C 415.206,406.529 414.539,403.529 414,400.5C 416.442,369.655 407.276,342.988 386.5,320.5 Z"/></g>
<g><path style="opacity:1" fill="#b8c6fa" d="M 282.5,320.5 C 261.512,343.293 252.346,370.293 255,401.5C 254.333,404.167 253.667,406.833 253,409.5C 247.9,417.598 243.233,425.931 239,434.5C 235.059,449.799 235.892,464.799 241.5,479.5C 234.246,480.63 226.913,480.796 219.5,480C 217.148,479.76 215.148,478.927 213.5,477.5C 206.291,448.982 211.457,422.982 229,399.5C 227.472,374.3 232.639,350.633 244.5,328.5C 256.593,323.592 269.26,320.925 282.5,320.5 Z"/></g>
<g><path style="opacity:0.985" fill="#d8d9fb" d="M 424.5,327.5 C 450.635,337.8 469.468,355.8 481,381.5C 489.443,399.264 493.109,417.931 492,437.5C 487.364,457.965 475.197,471.631 455.5,478.5C 458.816,464.289 459.316,449.956 457,435.5C 453.48,422.46 447.813,410.46 440,399.5C 440.827,374.151 435.661,350.151 424.5,327.5 Z"/></g>
<g><path style="opacity:1" fill="#d9d8fa" d="M 244.5,328.5 C 232.639,350.633 227.472,374.3 229,399.5C 211.457,422.982 206.291,448.982 213.5,477.5C 192.497,470.317 180.33,455.65 177,433.5C 176.721,415.278 180.555,397.945 188.5,381.5C 195.777,365.879 206.11,352.545 219.5,341.5C 227.393,336.386 235.726,332.053 244.5,328.5 Z"/></g>
<g><path style="opacity:0.997" fill="#f95c5c" d="M 147.5,365.5 C 160.524,371.01 173.858,375.843 187.5,380C 188.056,380.383 188.389,380.883 188.5,381.5C 180.555,397.945 176.721,415.278 177,433.5C 180.33,455.65 192.497,470.317 213.5,477.5C 215.148,478.927 217.148,479.76 219.5,480C 226.913,480.796 234.246,480.63 241.5,479.5C 251.274,496.272 265.608,506.939 284.5,511.5C 215.167,511.5 145.833,511.5 76.5,511.5C 68.0827,506.098 65.2493,498.431 68,488.5C 76.4247,435.612 102.925,394.612 147.5,365.5 Z"/></g>
<g><path style="opacity:1" fill="#384656" d="M 292.5,379.5 C 297.28,378.641 300.78,380.308 303,384.5C 303.667,388.833 303.667,393.167 303,397.5C 299.987,402.535 295.82,403.702 290.5,401C 285.977,393.249 286.644,386.082 292.5,379.5 Z"/></g>
<g><path style="opacity:1" fill="#364353" d="M 370.5,379.5 C 374.426,379.047 377.592,380.38 380,383.5C 380.667,388.5 380.667,393.5 380,398.5C 377.487,402.212 373.987,403.378 369.5,402C 367.951,400.786 366.785,399.286 366,397.5C 365.333,393.167 365.333,388.833 366,384.5C 367.025,382.313 368.525,380.646 370.5,379.5 Z"/></g>
<g><path style="opacity:1" fill="#354353" d="M 318.5,458.5 C 309.768,448.605 309.435,438.605 317.5,428.5C 319.14,427.68 320.807,426.847 322.5,426C 330.167,425.333 337.833,425.333 345.5,426C 349.274,427.302 352.441,429.469 355,432.5C 358.637,440.473 357.97,448.139 353,455.5C 342.3,466.215 330.8,467.215 318.5,458.5 Z"/></g>
</svg>
