<?xml version="1.0" encoding="UTF-8"?>
<!DOCTYPE svg PUBLIC "-//W3C//DTD SVG 1.1//EN" "http://www.w3.org/Graphics/SVG/1.1/DTD/svg11.dtd">
<svg xmlns="http://www.w3.org/2000/svg" version="1.1" width="512px" height="512px" style="shape-rendering:geometricPrecision; text-rendering:geometricPrecision; image-rendering:optimizeQuality; fill-rule:evenodd; clip-rule:evenodd" xmlns:xlink="http://www.w3.org/1999/xlink">
<g><path style="opacity:0.963" fill="#fecc4f" d="M 304.5,6.5 C 237.055,21.8586 169.389,36.8586 101.5,51.5C 162.535,7.02446 230.202,-7.97554 304.5,6.5 Z"/></g>
<g><path style="opacity:1" fill="#d5d4e2" d="M 371.5,29.5 C 372.348,33.2268 373.348,36.8935 374.5,40.5C 373.105,44.2901 371.438,47.9568 369.5,51.5C 355.06,54.6016 350.727,62.9349 356.5,76.5C 331.245,124.009 306.245,171.676 281.5,219.5C 282.3,242.16 282.967,264.827 283.5,287.5C 283.772,309.847 284.439,332.18 285.5,354.5C 283.528,346.611 281.528,338.611 279.5,330.5C 242.5,347.667 205.5,364.833 168.5,382C 154.723,382.217 148.556,375.384 150,361.5C 151.461,357.74 153.961,354.907 157.5,353C 196.197,335.235 234.697,317.068 273,298.5C 273.667,296.167 273.667,293.833 273,291.5C 269.907,276.037 267.074,260.537 264.5,245C 265.3,238.857 266.634,232.857 268.5,227C 219.802,244.57 171.135,262.57 122.5,281C 111.331,282.422 104.998,277.589 103.5,266.5C 103.821,259.005 107.488,253.838 114.5,251C 167.794,230.735 221.128,210.568 274.5,190.5C 276.434,185.695 277.934,180.695 279,175.5C 282.054,159.06 285.554,142.727 289.5,126.5C 220.81,146.018 152.143,166.518 83.5,188C 71.8239,189.326 65.1572,184.159 63.5,172.5C 64.3069,165.523 67.9736,160.69 74.5,158C 148.44,135.464 222.44,113.131 296.5,91C 302.995,62.1931 309.328,33.3598 315.5,4.5C 335.151,-3.14873 351.984,0.851275 366,16.5C 368.397,20.624 370.231,24.9573 371.5,29.5 Z"/></g>
<g><path style="opacity:0.978" fill="#cf3067" d="M 452.5,23.5 C 441.572,21.384 432.739,24.7174 426,33.5C 419.487,45.8602 412.987,58.1935 406.5,70.5C 406.167,70.5 405.833,70.5 405.5,70.5C 393.785,63.6422 381.785,57.3089 369.5,51.5C 371.438,47.9568 373.105,44.2901 374.5,40.5C 376.071,38.3649 377.404,36.0316 378.5,33.5C 382.053,26.0627 385.886,18.7294 390,11.5C 398.914,3.12641 409.081,1.29308 420.5,6C 431.389,11.6075 442.056,17.4409 452.5,23.5 Z"/></g>
<g><path style="opacity:0.999" fill="#f1f1f1" d="M 315.5,4.5 C 309.328,33.3598 302.995,62.1931 296.5,91C 222.44,113.131 148.44,135.464 74.5,158C 67.9736,160.69 64.3069,165.523 63.5,172.5C 65.1572,184.159 71.8239,189.326 83.5,188C 152.143,166.518 220.81,146.018 289.5,126.5C 285.554,142.727 282.054,159.06 279,175.5C 277.934,180.695 276.434,185.695 274.5,190.5C 221.128,210.568 167.794,230.735 114.5,251C 107.488,253.838 103.821,259.005 103.5,266.5C 104.998,277.589 111.331,282.422 122.5,281C 171.135,262.57 219.802,244.57 268.5,227C 266.634,232.857 265.3,238.857 264.5,245C 267.074,260.537 269.907,276.037 273,291.5C 273.667,293.833 273.667,296.167 273,298.5C 234.697,317.068 196.197,335.235 157.5,353C 153.961,354.907 151.461,357.74 150,361.5C 148.556,375.384 154.723,382.217 168.5,382C 205.5,364.833 242.5,347.667 279.5,330.5C 281.528,338.611 283.528,346.611 285.5,354.5C 285.146,356.767 285.479,358.101 286.5,358.5C 306.461,345.859 326.127,332.859 345.5,319.5C 364.775,307.553 383.775,295.22 402.5,282.5C 413.754,262.326 424.754,241.993 435.5,221.5C 450.41,254.655 466.41,287.321 483.5,319.5C 442.62,399.642 377.62,447.142 288.5,462C 223.551,470.101 164.051,455.935 110,419.5C 109.601,419.728 109.435,420.062 109.5,420.5C 71.3324,338.671 39.6658,254.338 14.5,167.5C 9.3255,149.128 4.3255,130.795 -0.5,112.5C -0.5,106.833 -0.5,101.167 -0.5,95.5C 2.98977,83.1682 10.6564,74.3348 22.5,69C 48.7445,62.718 75.0778,56.8847 101.5,51.5C 169.389,36.8586 237.055,21.8586 304.5,6.5C 308.167,5.83333 311.833,5.16667 315.5,4.5 Z"/></g>
<g><path style="opacity:1" fill="#f04880" d="M 452.5,23.5 C 468.603,31.3851 484.603,39.5517 500.5,48C 505.731,51.3358 509.398,55.8358 511.5,61.5C 511.5,66.1667 511.5,70.8333 511.5,75.5C 504.534,88.8135 497.534,102.147 490.5,115.5C 462.818,99.9911 434.818,84.9911 406.5,70.5C 412.987,58.1935 419.487,45.8602 426,33.5C 432.739,24.7174 441.572,21.384 452.5,23.5 Z"/></g>
<g><path style="opacity:0.876" fill="#feca4f" d="M 371.5,29.5 C 373.833,30.8333 376.167,32.1667 378.5,33.5C 377.404,36.0316 376.071,38.3649 374.5,40.5C 373.348,36.8935 372.348,33.2268 371.5,29.5 Z"/></g>
<g><path style="opacity:1" fill="#cacad2" d="M 369.5,51.5 C 381.785,57.3089 393.785,63.6422 405.5,70.5C 394.87,68.9642 388.537,73.4642 386.5,84C 387.151,87.7885 388.484,91.2885 390.5,94.5C 388.716,94.1075 387.05,93.4408 385.5,92.5C 375.673,87.4205 366.006,82.0871 356.5,76.5C 350.727,62.9349 355.06,54.6016 369.5,51.5 Z"/></g>
<g><path style="opacity:1" fill="#d4d3e1" d="M 405.5,70.5 C 405.833,70.5 406.167,70.5 406.5,70.5C 434.818,84.9911 462.818,99.9911 490.5,115.5C 495.117,123.395 494.117,130.561 487.5,137C 485.257,138.136 482.924,138.97 480.5,139.5C 479.5,139.5 478.5,139.5 477.5,139.5C 466.961,134.97 456.628,129.97 446.5,124.5C 427.56,114.866 408.893,104.866 390.5,94.5C 388.484,91.2885 387.151,87.7885 386.5,84C 388.537,73.4642 394.87,68.9642 405.5,70.5 Z"/></g>
<g><path style="opacity:1" fill="#2276c4" d="M 356.5,76.5 C 366.006,82.0871 375.673,87.4205 385.5,92.5C 357.572,147.687 329.072,202.687 300,257.5C 299.536,256.906 299.369,256.239 299.5,255.5C 301.276,239.435 295.276,227.435 281.5,219.5C 306.245,171.676 331.245,124.009 356.5,76.5 Z"/></g>
<g><path style="opacity:1" fill="#55abe4" d="M 385.5,92.5 C 387.05,93.4408 388.716,94.1075 390.5,94.5C 408.893,104.866 427.56,114.866 446.5,124.5C 418.52,179.127 390.02,233.46 361,287.5C 360.821,283.975 360.321,280.641 359.5,277.5C 356.111,258.95 344.944,248.95 326,247.5C 324.076,247.581 322.243,247.914 320.5,248.5C 310.193,250.234 302.36,255.567 297,264.5C 297.645,261.439 298.478,258.439 299.5,255.5C 299.369,256.239 299.536,256.906 300,257.5C 329.072,202.687 357.572,147.687 385.5,92.5 Z"/></g>
<g><path style="opacity:1" fill="#72b9ec" d="M 446.5,124.5 C 456.628,129.97 466.961,134.97 477.5,139.5C 463.5,166.833 449.5,194.167 435.5,221.5C 424.754,241.993 413.754,262.326 402.5,282.5C 384.327,275.749 369.493,280.082 358,295.5C 359.155,289.636 359.655,283.636 359.5,277.5C 360.321,280.641 360.821,283.975 361,287.5C 390.02,233.46 418.52,179.127 446.5,124.5 Z"/></g>
<g><path style="opacity:0.985" fill="#fecc4e" d="M 477.5,139.5 C 478.5,139.5 479.5,139.5 480.5,139.5C 511.885,203.942 516.552,270.275 494.5,338.5C 490.596,332.366 486.929,326.032 483.5,319.5C 466.41,287.321 450.41,254.655 435.5,221.5C 449.5,194.167 463.5,166.833 477.5,139.5 Z"/></g>
<g><path style="opacity:0.984" fill="#fecc4e" d="M 14.5,167.5 C 39.6658,254.338 71.3324,338.671 109.5,420.5C 118.971,441.442 128.971,462.109 139.5,482.5C 68.4902,445.952 23.6569,388.618 5,310.5C 2.73083,299.425 0.897494,288.425 -0.5,277.5C -0.5,262.833 -0.5,248.167 -0.5,233.5C 1.94809,211.031 6.94809,189.031 14.5,167.5 Z"/></g>
<g><path style="opacity:1" fill="#c9cad2" d="M 281.5,219.5 C 295.276,227.435 301.276,239.435 299.5,255.5C 298.478,258.439 297.645,261.439 297,264.5C 302.36,255.567 310.193,250.234 320.5,248.5C 316.774,260.846 312.941,273.179 309,285.5C 308.505,287.473 308.338,289.473 308.5,291.5C 307.833,291.167 307.167,290.833 306.5,290.5C 298.971,288.6 291.305,287.6 283.5,287.5C 282.967,264.827 282.3,242.16 281.5,219.5 Z"/></g>
<g><path style="opacity:1" fill="#d4d3e1" d="M 359.5,277.5 C 359.655,283.636 359.155,289.636 358,295.5C 369.493,280.082 384.327,275.749 402.5,282.5C 383.775,295.22 364.775,307.553 345.5,319.5C 336.078,306.423 323.745,297.09 308.5,291.5C 308.338,289.473 308.505,287.473 309,285.5C 312.941,273.179 316.774,260.846 320.5,248.5C 322.243,247.914 324.076,247.581 326,247.5C 344.944,248.95 356.111,258.95 359.5,277.5 Z"/></g>
<g><path style="opacity:1" fill="#353a4c" d="M 283.5,287.5 C 291.305,287.6 298.971,288.6 306.5,290.5C 300.142,313.269 293.475,335.936 286.5,358.5C 285.479,358.101 285.146,356.767 285.5,354.5C 284.439,332.18 283.772,309.847 283.5,287.5 Z"/></g>
<g><path style="opacity:1" fill="#464b5b" d="M 306.5,290.5 C 307.167,290.833 307.833,291.167 308.5,291.5C 323.745,297.09 336.078,306.423 345.5,319.5C 326.127,332.859 306.461,345.859 286.5,358.5C 293.475,335.936 300.142,313.269 306.5,290.5 Z"/></g>
<g><path style="opacity:1" fill="#d5d4e1" d="M 483.5,319.5 C 486.929,326.032 490.596,332.366 494.5,338.5C 469.113,409.056 422.113,459.556 353.5,490C 291.773,514.803 229.439,516.47 166.5,495C 156.981,491.674 147.981,487.508 139.5,482.5C 128.971,462.109 118.971,441.442 109.5,420.5C 109.435,420.062 109.601,419.728 110,419.5C 164.051,455.935 223.551,470.101 288.5,462C 377.62,447.142 442.62,399.642 483.5,319.5 Z"/></g>
</svg>
