<?xml version="1.0" encoding="UTF-8"?>
<!DOCTYPE svg PUBLIC "-//W3C//DTD SVG 1.1//EN" "http://www.w3.org/Graphics/SVG/1.1/DTD/svg11.dtd">
<svg xmlns="http://www.w3.org/2000/svg" version="1.1" width="512px" height="512px" style="shape-rendering:geometricPrecision; text-rendering:geometricPrecision; image-rendering:optimizeQuality; fill-rule:evenodd; clip-rule:evenodd" xmlns:xlink="http://www.w3.org/1999/xlink">
<g><path style="opacity:0.994" fill="#50e1cd" d="M 157.5,154.5 C 126.606,145.288 103.773,126.288 89,97.5C 80.3763,78.489 80.3763,59.489 89,40.5C 92.342,33.8063 96.1753,27.473 100.5,21.5C 126.47,20.3606 152.47,20.1939 178.5,21C 209.242,27.0754 227.076,45.5754 232,76.5C 233.821,104.988 222.321,126.154 197.5,140C 187.311,144.442 176.644,146.775 165.5,147C 162.308,149.028 159.641,151.528 157.5,154.5 Z"/></g>
<g><path style="opacity:0.992" fill="#50e1cd" d="M 332.5,20.5 C 357.502,20.3334 382.502,20.5 407.5,21C 441.206,28.2352 459.206,49.0686 461.5,83.5C 459.349,115.817 442.682,136.317 411.5,145C 405.062,145.566 398.729,146.566 392.5,148C 387.46,153.906 383.294,160.406 380,167.5C 374.209,172.18 368.042,172.68 361.5,169C 357.702,163.908 354.535,158.408 352,152.5C 350.5,151 349,149.5 347.5,148C 323.285,147.309 303.785,137.476 289,118.5C 273.747,91.7056 275.414,66.039 294,41.5C 304.674,30.4154 317.507,23.4154 332.5,20.5 Z"/></g>
<g><path style="opacity:1" fill="#02d1b3" d="M 100.5,21.5 C 96.1753,27.473 92.342,33.8063 89,40.5C 80.3763,59.489 80.3763,78.489 89,97.5C 103.773,126.288 126.606,145.288 157.5,154.5C 155.746,159.842 153.079,164.675 149.5,169C 142.886,172.754 136.72,172.254 131,167.5C 127.706,160.406 123.54,153.906 118.5,148C 89.817,147.254 68.6503,134.421 55,109.5C 43.6504,78.7257 50.4837,52.8924 75.5,32C 83.1442,26.8441 91.4775,23.3441 100.5,21.5 Z"/></g>
<g><path style="opacity:1" fill="#fbfefe" d="M 105.5,75.5 C 115.11,75.9359 117.776,80.4359 113.5,89C 104.598,92.6514 100.432,89.8181 101,80.5C 102.025,78.313 103.525,76.6464 105.5,75.5 Z"/></g>
<g><path style="opacity:1" fill="#fbfefe" d="M 138.5,75.5 C 148.132,75.9543 150.799,80.4543 146.5,89C 136.961,92.6601 132.794,89.4934 134,79.5C 135.397,77.9297 136.897,76.5964 138.5,75.5 Z"/></g>
<g><path style="opacity:1" fill="#fbfefe" d="M 170.5,75.5 C 181.001,75.8411 183.667,80.5078 178.5,89.5C 169.263,92.431 165.43,89.0976 167,79.5C 168.376,78.2949 169.542,76.9616 170.5,75.5 Z"/></g>
<g><path style="opacity:1" fill="#fbfefd" d="M 334.5,75.5 C 344.896,76.411 347.229,81.2444 341.5,90C 333.008,92.1627 329.175,88.9961 330,80.5C 331.025,78.313 332.525,76.6464 334.5,75.5 Z"/></g>
<g><path style="opacity:1" fill="#fbfefd" d="M 367.5,75.5 C 377.11,75.9359 379.776,80.4359 375.5,89C 365.961,92.6601 361.794,89.4934 363,79.5C 364.397,77.9297 365.897,76.5964 367.5,75.5 Z"/></g>
<g><path style="opacity:1" fill="#fbfefd" d="M 400.5,75.5 C 409.733,76.134 412.4,80.634 408.5,89C 398.821,92.9826 394.654,89.816 396,79.5C 397.397,77.9297 398.897,76.5964 400.5,75.5 Z"/></g>
<g><path style="opacity:1" fill="#5c586f" d="M 159.5,198.5 C 121.374,207.626 94.0409,229.959 77.5,265.5C 59.9837,269.345 47.9837,279.678 41.5,296.5C 27.5307,295.706 15.864,300.372 6.5,310.5C 18.2461,252.588 52.5794,215.755 109.5,200C 126.091,196.219 142.758,195.719 159.5,198.5 Z"/></g>
<g><path style="opacity:1" fill="#e3986d" d="M 391.5,198.5 C 352.717,207.955 323.384,229.955 303.5,264.5C 297.5,264.5 291.5,264.5 285.5,264.5C 276.309,263.838 271.309,258.838 270.5,249.5C 271.991,242.361 275.658,236.528 281.5,232C 313.114,204.408 349.781,193.241 391.5,198.5 Z"/></g>
<g><path style="opacity:0.997" fill="#69637e" d="M 159.5,198.5 C 190.896,203.609 217.063,217.942 238,241.5C 242.081,251.149 239.581,258.649 230.5,264C 228.866,264.494 227.199,264.66 225.5,264.5C 176.095,264.172 126.762,264.505 77.5,265.5C 94.0409,229.959 121.374,207.626 159.5,198.5 Z"/></g>
<g><path style="opacity:0.997" fill="#e8a882" d="M 391.5,198.5 C 441.874,207.371 477.04,235.371 497,282.5C 500.44,291.596 502.94,300.929 504.5,310.5C 495.043,300.456 483.376,296.123 469.5,297.5C 463.675,280.576 452.008,270.076 434.5,266C 390.867,264.532 347.2,264.032 303.5,264.5C 323.384,229.955 352.717,207.955 391.5,198.5 Z"/></g>
<g><path style="opacity:0.999" fill="#d99c80" d="M 225.5,264.5 C 233.551,275.472 238.384,287.805 240,301.5C 246.272,336.497 238.939,368.164 218,396.5C 207.599,408.746 195.099,418.079 180.5,424.5C 161.668,431.866 142.335,434.199 122.5,431.5C 123.239,431.631 123.906,431.464 124.5,431C 85.3839,405.467 65.3839,369.133 64.5,322C 64.1976,301.998 68.5309,283.164 77.5,265.5C 126.762,264.505 176.095,264.172 225.5,264.5 Z"/></g>
<g><path style="opacity:0.999" fill="#fecabd" d="M 285.5,264.5 C 291.5,264.5 297.5,264.5 303.5,264.5C 280.317,311.473 284.151,356.14 315,398.5C 325.752,410.931 337.919,421.598 351.5,430.5C 344.262,429.309 337.262,427.309 330.5,424.5C 290.559,404.485 270.226,371.985 269.5,327C 268.901,310.331 271.401,294.165 277,278.5C 279.593,273.639 282.427,268.972 285.5,264.5 Z"/></g>
<g><path style="opacity:0.999" fill="#fedbcd" d="M 303.5,264.5 C 347.2,264.032 390.867,264.532 434.5,266C 452.008,270.076 463.675,280.576 469.5,297.5C 474.718,314.489 475.884,331.823 473,349.5C 472.275,355.401 470.775,361.067 468.5,366.5C 458.494,392.839 440.827,412.172 415.5,424.5C 405.394,427.776 395.061,430.276 384.5,432C 373.285,432.908 362.285,432.408 351.5,430.5C 337.919,421.598 325.752,410.931 315,398.5C 284.151,356.14 280.317,311.473 303.5,264.5 Z"/></g>
<g><path style="opacity:0.999" fill="#c6856a" d="M 77.5,265.5 C 68.5309,283.164 64.1976,301.998 64.5,322C 65.3839,369.133 85.3839,405.467 124.5,431C 123.906,431.464 123.239,431.631 122.5,431.5C 113.496,430.387 104.83,428.054 96.5,424.5C 71.0617,412.683 53.0617,393.683 42.5,367.5C 26.7603,368.935 14.0936,363.602 4.5,351.5C 2.51853,347.878 0.851863,344.211 -0.5,340.5C -0.5,334.833 -0.5,329.167 -0.5,323.5C 1.04098,318.752 3.37431,314.419 6.5,310.5C 15.864,300.372 27.5307,295.706 41.5,296.5C 47.9837,279.678 59.9837,269.345 77.5,265.5 Z"/></g>
<g><path style="opacity:0.985" fill="#fecabc" d="M 469.5,297.5 C 483.376,296.123 495.043,300.456 504.5,310.5C 507.626,314.419 509.959,318.752 511.5,323.5C 511.5,329.167 511.5,334.833 511.5,340.5C 504.285,360.681 489.951,369.348 468.5,366.5C 470.775,361.067 472.275,355.401 473,349.5C 475.884,331.823 474.718,314.489 469.5,297.5 Z"/></g>
<g><path style="opacity:1" fill="#474150" d="M 97.5,314.5 C 102.421,314.043 105.921,316.043 108,320.5C 108.667,325.5 108.667,330.5 108,335.5C 105.774,339.861 102.274,341.361 97.5,340C 95.3333,339.167 93.8333,337.667 93,335.5C 92.3333,330.167 92.3333,324.833 93,319.5C 94.7073,317.963 96.2073,316.296 97.5,314.5 Z"/></g>
<g><path style="opacity:1" fill="#474150" d="M 207.5,314.5 C 212.421,314.043 215.921,316.043 218,320.5C 218.667,325.5 218.667,330.5 218,335.5C 215.459,340.069 211.625,341.569 206.5,340C 204.951,338.786 203.785,337.286 203,335.5C 202.333,330.167 202.333,324.833 203,319.5C 204.707,317.963 206.207,316.296 207.5,314.5 Z"/></g>
<g><path style="opacity:1" fill="#484353" d="M 298.5,314.5 C 302.548,314.441 305.715,316.108 308,319.5C 308.667,324.833 308.667,330.167 308,335.5C 304.987,340.535 300.82,341.702 295.5,339C 294.789,337.745 293.956,336.579 293,335.5C 292.333,330.5 292.333,325.5 293,320.5C 294.36,317.977 296.193,315.977 298.5,314.5 Z"/></g>
<g><path style="opacity:1" fill="#494453" d="M 407.5,314.5 C 411.95,314.142 415.45,315.808 418,319.5C 418.667,324.833 418.667,330.167 418,335.5C 415.774,339.861 412.274,341.361 407.5,340C 405.333,339.167 403.833,337.667 403,335.5C 402.333,330.167 402.333,324.833 403,319.5C 404.707,317.963 406.207,316.296 407.5,314.5 Z"/></g>
<g><path style="opacity:1" fill="#443f4f" d="M 137.5,325.5 C 142.437,324.603 146.437,326.103 149.5,330C 153.471,331.913 157.471,331.913 161.5,330C 166.638,324.303 171.805,324.136 177,329.5C 178.064,334.878 176.231,339.044 171.5,342C 160.796,347.996 150.129,347.996 139.5,342C 132.508,336.946 131.841,331.446 137.5,325.5 Z"/></g>
<g><path style="opacity:1" fill="#444050" d="M 337.5,325.5 C 342.437,324.603 346.437,326.103 349.5,330C 353.471,331.913 357.471,331.913 361.5,330C 364.572,325.939 368.572,324.606 373.5,326C 377.124,328.161 378.291,331.328 377,335.5C 369.564,345.315 359.731,348.815 347.5,346C 341.564,344.289 337.064,340.789 334,335.5C 332.755,331.235 333.922,327.902 337.5,325.5 Z"/></g>
<g><path style="opacity:1" fill="#5c586f" d="M 4.5,351.5 C 14.0936,363.602 26.7603,368.935 42.5,367.5C 53.0617,393.683 71.0617,412.683 96.5,424.5C 89.4191,431.243 83.0858,438.577 77.5,446.5C 53.8642,449.901 34.0309,442.901 18,425.5C 12.1349,418.102 8.13485,409.768 6,400.5C 4.63089,384.202 4.13089,367.869 4.5,351.5 Z"/></g>
<g><path style="opacity:0.986" fill="#fcd79e" d="M 96.5,424.5 C 104.83,428.054 113.496,430.387 122.5,431.5C 142.335,434.199 161.668,431.866 180.5,424.5C 199.443,442.39 209.777,464.39 211.5,490.5C 201.833,490.5 192.167,490.5 182.5,490.5C 182.666,481.494 182.5,472.494 182,463.5C 177.829,457.271 173.163,456.938 168,462.5C 167.5,471.827 167.334,481.161 167.5,490.5C 147.833,490.5 128.167,490.5 108.5,490.5C 108.666,481.494 108.5,472.494 108,463.5C 102.916,456.941 97.9158,456.941 93,463.5C 92.5002,472.494 92.3336,481.494 92.5,490.5C 82.8276,490.666 73.1609,490.5 63.5,490C 64.4544,474.303 69.1211,459.803 77.5,446.5C 83.0858,438.577 89.4191,431.243 96.5,424.5 Z"/></g>
<g><path style="opacity:0.996" fill="#93bbe6" d="M 330.5,424.5 C 337.262,427.309 344.262,429.309 351.5,430.5C 362.285,432.408 373.285,432.908 384.5,432C 395.061,430.276 405.394,427.776 415.5,424.5C 434.566,442.133 445.232,463.966 447.5,490C 437.839,490.5 428.172,490.666 418.5,490.5C 418.666,481.494 418.5,472.494 418,463.5C 413,456.833 408,456.833 403,463.5C 402.5,472.494 402.334,481.494 402.5,490.5C 382.833,490.5 363.167,490.5 343.5,490.5C 343.666,481.161 343.5,471.827 343,462.5C 338.333,457.167 333.667,457.167 329,462.5C 328.5,471.827 328.334,481.161 328.5,490.5C 318.833,490.5 309.167,490.5 299.5,490.5C 301.223,464.39 311.557,442.39 330.5,424.5 Z"/></g>
<g><path style="opacity:1" fill="#fbc173" d="M 108.5,490.5 C 103.167,490.5 97.8333,490.5 92.5,490.5C 92.3336,481.494 92.5002,472.494 93,463.5C 97.9158,456.941 102.916,456.941 108,463.5C 108.5,472.494 108.666,481.494 108.5,490.5 Z"/></g>
<g><path style="opacity:1" fill="#fbc072" d="M 182.5,490.5 C 177.5,490.5 172.5,490.5 167.5,490.5C 167.334,481.161 167.5,471.827 168,462.5C 173.163,456.938 177.829,457.271 182,463.5C 182.5,472.494 182.666,481.494 182.5,490.5 Z"/></g>
<g><path style="opacity:1" fill="#69a2de" d="M 343.5,490.5 C 338.5,490.5 333.5,490.5 328.5,490.5C 328.334,481.161 328.5,471.827 329,462.5C 333.667,457.167 338.333,457.167 343,462.5C 343.5,471.827 343.666,481.161 343.5,490.5 Z"/></g>
<g><path style="opacity:1" fill="#6aa3de" d="M 418.5,490.5 C 413.167,490.5 407.833,490.5 402.5,490.5C 402.334,481.494 402.5,472.494 403,463.5C 408,456.833 413,456.833 418,463.5C 418.5,472.494 418.666,481.494 418.5,490.5 Z"/></g>
</svg>
