<?xml version="1.0" encoding="UTF-8"?>
<!DOCTYPE svg PUBLIC "-//W3C//DTD SVG 1.1//EN" "http://www.w3.org/Graphics/SVG/1.1/DTD/svg11.dtd">
<svg xmlns="http://www.w3.org/2000/svg" version="1.1" width="512px" height="512px" style="shape-rendering:geometricPrecision; text-rendering:geometricPrecision; image-rendering:optimizeQuality; fill-rule:evenodd; clip-rule:evenodd" xmlns:xlink="http://www.w3.org/1999/xlink">
<g><path style="opacity:0.991" fill="#609ece" d="M 299.5,12.5 C 323.813,19.8174 337.146,36.1507 339.5,61.5C 335.228,59.9089 330.894,58.4089 326.5,57C 307.963,56.2011 290.629,51.3677 274.5,42.5C 260.826,32.469 257.826,19.8023 265.5,4.5C 266.167,4.16667 266.833,3.83333 267.5,3.5C 277.638,8.36788 288.304,11.3679 299.5,12.5 Z"/></g>
<g><path style="opacity:1" fill="#1f75bb" d="M 299.5,12.5 C 312.536,12.9786 325.536,13.8119 338.5,15C 359.746,21.91 371.912,36.41 375,58.5C 376.467,73.3847 374.634,87.7181 369.5,101.5C 364.276,90.1043 357.61,79.6043 349.5,70C 346.621,67.6148 343.621,65.4482 340.5,63.5C 340.167,62.8333 339.833,62.1667 339.5,61.5C 337.146,36.1507 323.813,19.8174 299.5,12.5 Z"/></g>
<g><path style="opacity:0.994" fill="#fdd0a3" d="M 274.5,42.5 C 290.629,51.3677 307.963,56.2011 326.5,57C 330.894,58.4089 335.228,59.9089 339.5,61.5C 339.833,62.1667 340.167,62.8333 340.5,63.5C 341.733,91.9149 332.066,115.915 311.5,135.5C 305.827,135.415 300.494,134.082 295.5,131.5C 267.539,117.576 256.705,95.2422 263,64.5C 265.541,56.4144 269.375,49.0811 274.5,42.5 Z"/></g>
<g><path style="opacity:1" fill="#febc85" d="M 340.5,63.5 C 343.621,65.4482 346.621,67.6148 349.5,70C 357.61,79.6043 364.276,90.1043 369.5,101.5C 364.76,114.906 356.093,124.906 343.5,131.5C 334.521,135.022 325.188,136.688 315.5,136.5C 313.901,136.768 312.568,136.434 311.5,135.5C 332.066,115.915 341.733,91.9149 340.5,63.5 Z"/></g>
<g><path style="opacity:0.987" fill="#f7f1ef" d="M 124.5,179.5 C 126.811,182.663 128.978,185.997 131,189.5C 132.115,208.219 123.281,217.219 104.5,216.5C 100.007,214.421 95.674,212.088 91.5,209.5C 77.4478,200.139 62.7811,191.806 47.5,184.5C 33.8607,176.678 20.1941,168.845 6.5,161C 3.52399,158.175 1.19065,155.008 -0.5,151.5C -0.5,147.167 -0.5,142.833 -0.5,138.5C 7.02018,125.269 18.0202,121.435 32.5,127C 63.0313,144.765 93.698,162.265 124.5,179.5 Z"/></g>
<g><path style="opacity:0.995" fill="#fd8087" d="M 295.5,131.5 C 300.494,134.082 305.827,135.415 311.5,135.5C 312.568,136.434 313.901,136.768 315.5,136.5C 328.017,175.338 331.017,215.005 324.5,255.5C 335.833,255.5 347.167,255.5 358.5,255.5C 358.5,255.833 358.5,256.167 358.5,256.5C 347.167,256.5 335.833,256.5 324.5,256.5C 305.992,256.83 287.659,256.497 269.5,255.5C 269.5,242.167 269.5,228.833 269.5,215.5C 269.5,209.833 269.5,204.167 269.5,198.5C 269.5,189.833 269.5,181.167 269.5,172.5C 278.167,158.833 286.833,145.167 295.5,131.5 Z"/></g>
<g><path style="opacity:1" fill="#fe636e" d="M 343.5,131.5 C 349.758,140.357 355.758,149.357 361.5,158.5C 360.833,158.5 360.167,158.5 359.5,158.5C 342.586,157.927 335.086,166.26 337,183.5C 338.002,187.164 339.836,190.331 342.5,193C 351.109,197.14 359.776,200.974 368.5,204.5C 365.674,221.628 362.341,238.628 358.5,255.5C 347.167,255.5 335.833,255.5 324.5,255.5C 331.017,215.005 328.017,175.338 315.5,136.5C 325.188,136.688 334.521,135.022 343.5,131.5 Z"/></g>
<g><path style="opacity:0.989" fill="#fed0a2" d="M 269.5,172.5 C 269.5,181.167 269.5,189.833 269.5,198.5C 260.494,198.666 251.494,198.5 242.5,198C 236.026,196.871 231.192,193.371 228,187.5C 218.667,174.167 209.333,160.833 200,147.5C 198.438,143.986 197.605,140.319 197.5,136.5C 205.337,132.31 213.004,132.81 220.5,138C 229.082,148.749 237.082,159.915 244.5,171.5C 252.807,172.498 261.14,172.831 269.5,172.5 Z"/></g>
<g><path style="opacity:1" fill="#ffbc86" d="M 197.5,136.5 C 197.605,140.319 198.438,143.986 200,147.5C 209.333,160.833 218.667,174.167 228,187.5C 231.192,193.371 236.026,196.871 242.5,198C 251.494,198.5 260.494,198.666 269.5,198.5C 269.5,204.167 269.5,209.833 269.5,215.5C 256.829,215.667 244.162,215.5 231.5,215C 227.363,214.349 223.863,212.515 221,209.5C 212.667,197.833 204.333,186.167 196,174.5C 192.479,169.458 189.479,164.125 187,158.5C 185.442,148.619 188.942,141.286 197.5,136.5 Z"/></g>
<g><path style="opacity:1" fill="#febc85" d="M 359.5,158.5 C 353.725,157.275 351.059,159.608 351.5,165.5C 351.838,174.358 355.838,180.858 363.5,185C 377.093,189.641 390.593,194.475 404,199.5C 404.333,213.5 404.667,227.5 405,241.5C 408.816,252.155 416.316,256.822 427.5,255.5C 422.528,266.121 414.194,269.954 402.5,267C 395.599,264.432 391.099,259.598 389,252.5C 388.833,238.488 388.333,224.488 387.5,210.5C 381.276,208.092 374.943,206.092 368.5,204.5C 359.776,200.974 351.109,197.14 342.5,193C 339.836,190.331 338.002,187.164 337,183.5C 335.086,166.26 342.586,157.927 359.5,158.5 Z"/></g>
<g><path style="opacity:0.987" fill="#fed0a2" d="M 359.5,158.5 C 360.167,158.5 360.833,158.5 361.5,158.5C 380.315,164.161 398.982,170.327 417.5,177C 423.492,179.659 427.325,184.159 429,190.5C 429.667,211.167 429.667,231.833 429,252.5C 428.768,253.737 428.268,254.737 427.5,255.5C 416.316,256.822 408.816,252.155 405,241.5C 404.667,227.5 404.333,213.5 404,199.5C 390.593,194.475 377.093,189.641 363.5,185C 355.838,180.858 351.838,174.358 351.5,165.5C 351.059,159.608 353.725,157.275 359.5,158.5 Z"/></g>
<g><path style="opacity:1" fill="#d7ddea" d="M 124.5,179.5 C 132.406,183.036 139.573,187.703 146,193.5C 153.381,212.07 147.214,223.07 127.5,226.5C 118.944,225.052 111.278,221.718 104.5,216.5C 123.281,217.219 132.115,208.219 131,189.5C 128.978,185.997 126.811,182.663 124.5,179.5 Z"/></g>
<g><path style="opacity:1" fill="#1e75bb" d="M 47.5,184.5 C 62.7811,191.806 77.4478,200.139 91.5,209.5C 91.5,262.5 91.5,315.5 91.5,368.5C 84.1667,368.5 76.8333,368.5 69.5,368.5C 69.6667,320.832 69.5,273.166 69,225.5C 62.4556,220.119 55.2889,215.786 47.5,212.5C 47.5,203.167 47.5,193.833 47.5,184.5 Z"/></g>
<g><path style="opacity:0.959" fill="#609ecf" d="M 47.5,212.5 C 55.2889,215.786 62.4556,220.119 69,225.5C 69.5,273.166 69.6667,320.832 69.5,368.5C 76.8333,368.5 84.1667,368.5 91.5,368.5C 83.6841,369.492 75.6841,369.826 67.5,369.5C 60.7446,369.793 54.0779,369.46 47.5,368.5C 47.5,316.5 47.5,264.5 47.5,212.5 Z"/></g>
<g><path style="opacity:0.994" fill="#f7f1ef" d="M 269.5,255.5 C 287.659,256.497 305.992,256.83 324.5,256.5C 317.048,274.121 305.381,288.287 289.5,299C 275.42,306.789 261.586,314.955 248,323.5C 247.5,344.497 247.333,365.497 247.5,386.5C 239.648,386.825 231.982,386.492 224.5,385.5C 224.333,358.831 224.5,332.165 225,305.5C 225.899,301.462 227.566,297.795 230,294.5C 243.035,281.298 256.202,268.298 269.5,255.5 Z"/></g>
<g><path style="opacity:1" fill="#d6dce9" d="M 324.5,256.5 C 335.833,256.5 347.167,256.5 358.5,256.5C 358.5,256.833 358.5,257.167 358.5,257.5C 353.949,274.724 344.282,288.557 329.5,299C 320.436,304.525 311.436,310.025 302.5,315.5C 294.022,320.575 285.355,325.408 276.5,330C 273.667,331.5 271.5,333.667 270,336.5C 270.391,353.141 270.557,369.807 270.5,386.5C 262.833,386.5 255.167,386.5 247.5,386.5C 247.333,365.497 247.5,344.497 248,323.5C 261.586,314.955 275.42,306.789 289.5,299C 305.381,288.287 317.048,274.121 324.5,256.5 Z"/></g>
<g><path style="opacity:1" fill="#94bcde" d="M 358.5,257.5 C 362.913,278.724 367.413,300.058 372,321.5C 374.03,323.737 376.53,325.237 379.5,326C 394.294,330.543 408.961,335.376 423.5,340.5C 420.574,346.609 418.241,352.943 416.5,359.5C 416.167,359.5 415.833,359.5 415.5,359.5C 397.942,354.37 380.609,348.536 363.5,342C 361.667,340.833 360.167,339.333 359,337.5C 355.389,328.609 352.055,319.609 349,310.5C 348.261,309.426 347.261,308.759 346,308.5C 340.098,312.203 334.264,316.036 328.5,320C 322.148,323.679 315.481,326.512 308.5,328.5C 306.774,324.047 304.774,319.714 302.5,315.5C 311.436,310.025 320.436,304.525 329.5,299C 344.282,288.557 353.949,274.724 358.5,257.5 Z"/></g>
<g><path style="opacity:0.989" fill="#d5dbe9" d="M 415.5,359.5 C 412.68,368.456 409.346,377.122 405.5,385.5C 379.157,376.441 352.824,367.274 326.5,358C 324.391,356.859 322.558,355.359 321,353.5C 316.82,345.14 312.653,336.807 308.5,328.5C 315.481,326.512 322.148,323.679 328.5,320C 334.264,316.036 340.098,312.203 346,308.5C 347.261,308.759 348.261,309.426 349,310.5C 352.055,319.609 355.389,328.609 359,337.5C 360.167,339.333 361.667,340.833 363.5,342C 380.609,348.536 397.942,354.37 415.5,359.5 Z"/></g>
<g><path style="opacity:1" fill="#fd646f" d="M 423.5,340.5 C 434.634,344.154 445.467,348.487 456,353.5C 457.258,360.164 456.091,366.498 452.5,372.5C 439.982,369.224 427.982,364.891 416.5,359.5C 418.241,352.943 420.574,346.609 423.5,340.5 Z"/></g>
<g><path style="opacity:0.983" fill="#fc8087" d="M 415.5,359.5 C 415.833,359.5 416.167,359.5 416.5,359.5C 427.982,364.891 439.982,369.224 452.5,372.5C 445.833,390.833 439.167,409.167 432.5,427.5C 426.833,427.5 421.167,427.5 415.5,427.5C 407.027,419.262 403.361,409.095 404.5,397C 404.533,393.085 404.867,389.251 405.5,385.5C 409.346,377.122 412.68,368.456 415.5,359.5 Z"/></g>
<g><path style="opacity:0.994" fill="#f7f1ef" d="M 47.5,368.5 C 54.0779,369.46 60.7446,369.793 67.5,369.5C 89.5626,373.984 103.063,387.317 108,409.5C 108.5,442.165 108.667,474.832 108.5,507.5C 75.4983,507.667 42.4983,507.5 9.5,507C 7.71398,506.215 6.21398,505.049 5,503.5C 3.34995,461.226 3.01662,418.893 4,376.5C 5.16667,372.667 7.66667,370.167 11.5,369C 23.4954,368.5 35.4954,368.333 47.5,368.5 Z"/></g>
<g><path style="opacity:0.989" fill="#fd7f86" d="M 224.5,385.5 C 231.982,386.492 239.648,386.825 247.5,386.5C 247.5,400.167 247.5,413.833 247.5,427.5C 227.5,427.5 207.5,427.5 187.5,427.5C 187.587,408.246 196.587,395.079 214.5,388C 217.802,386.974 221.135,386.14 224.5,385.5 Z"/></g>
<g><path style="opacity:1" fill="#fd636e" d="M 247.5,386.5 C 255.167,386.5 262.833,386.5 270.5,386.5C 270.5,400.167 270.5,413.833 270.5,427.5C 262.833,427.5 255.167,427.5 247.5,427.5C 247.5,413.833 247.5,400.167 247.5,386.5 Z"/></g>
<g><path style="opacity:1" fill="#66a1d0" d="M 52.5,413.5 C 59.5079,413.334 66.5079,413.5 73.5,414C 77.8608,416.226 79.3608,419.726 78,424.5C 76.8906,426.815 75.0573,428.315 72.5,429C 65.8333,429.667 59.1667,429.667 52.5,429C 45.8881,423.836 45.8881,418.67 52.5,413.5 Z"/></g>
<g><path style="opacity:0.994" fill="#609dce" d="M 140.5,427.5 C 156.167,427.5 171.833,427.5 187.5,427.5C 207.5,427.5 227.5,427.5 247.5,427.5C 255.167,427.5 262.833,427.5 270.5,427.5C 318.833,427.5 367.167,427.5 415.5,427.5C 421.167,427.5 426.833,427.5 432.5,427.5C 449.548,427.073 466.548,427.573 483.5,429C 492.056,431.411 498.722,436.244 503.5,443.5C 506.65,459.548 502.316,473.048 490.5,484C 485.189,486.993 479.522,488.993 473.5,490C 362.501,490.5 251.501,490.667 140.5,490.5C 140.5,485.5 140.5,480.5 140.5,475.5C 251.834,475.667 363.167,475.5 474.5,475C 482.378,469.962 482.378,464.962 474.5,460C 363.167,459.5 251.834,459.333 140.5,459.5C 140.5,448.833 140.5,438.167 140.5,427.5 Z"/></g>
<g><path style="opacity:1" fill="#1d74bb" d="M 503.5,443.5 C 506.965,448.097 509.631,453.097 511.5,458.5C 511.5,464.5 511.5,470.5 511.5,476.5C 507.015,492.484 496.681,502.651 480.5,507C 367.167,507.5 253.834,507.667 140.5,507.5C 140.5,501.833 140.5,496.167 140.5,490.5C 251.501,490.667 362.501,490.5 473.5,490C 479.522,488.993 485.189,486.993 490.5,484C 502.316,473.048 506.65,459.548 503.5,443.5 Z"/></g>
<g><path style="opacity:1" fill="#619ecf" d="M 51.5,450.5 C 59.1739,450.334 66.8406,450.5 74.5,451C 79.9865,456.081 79.6531,460.748 73.5,465C 66.1667,465.667 58.8333,465.667 51.5,465C 46.2018,460.092 46.2018,455.258 51.5,450.5 Z"/></g>
<g><path style="opacity:1" fill="#d3dae9" d="M 91.5,368.5 C 117.459,369.959 133.626,383.292 140,408.5C 140.5,414.825 140.666,421.158 140.5,427.5C 140.5,438.167 140.5,448.833 140.5,459.5C 251.834,459.333 363.167,459.5 474.5,460C 482.378,464.962 482.378,469.962 474.5,475C 363.167,475.5 251.834,475.667 140.5,475.5C 140.5,480.5 140.5,485.5 140.5,490.5C 140.5,496.167 140.5,501.833 140.5,507.5C 129.833,507.5 119.167,507.5 108.5,507.5C 108.667,474.832 108.5,442.165 108,409.5C 103.063,387.317 89.5626,373.984 67.5,369.5C 75.6841,369.826 83.6841,369.492 91.5,368.5 Z"/></g>
</svg>
