<?xml version="1.0" encoding="UTF-8"?>
<!DOCTYPE svg PUBLIC "-//W3C//DTD SVG 1.1//EN" "http://www.w3.org/Graphics/SVG/1.1/DTD/svg11.dtd">
<svg xmlns="http://www.w3.org/2000/svg" version="1.1" width="512px" height="512px" style="shape-rendering:geometricPrecision; text-rendering:geometricPrecision; image-rendering:optimizeQuality; fill-rule:evenodd; clip-rule:evenodd" xmlns:xlink="http://www.w3.org/1999/xlink">
<g><path style="opacity:1" fill="#a97f6c" d="M 262.5,10.5 C 228.003,22.7566 211.337,47.4233 212.5,84.5C 205.5,84.5 198.5,84.5 191.5,84.5C 188.402,51.5161 201.735,28.0161 231.5,14C 241.716,10.1767 252.049,9.01008 262.5,10.5 Z"/></g>
<g><path style="opacity:1" fill="#be927c" d="M 262.5,10.5 C 290.896,14.3903 309.396,30.0569 318,57.5C 319.217,63.101 319.717,68.7676 319.5,74.5C 319.5,78.1667 319.5,81.8333 319.5,85.5C 305.745,85.9846 292.078,85.1512 278.5,83C 265.697,79.9348 254.697,73.7681 245.5,64.5C 238.047,76.9406 227.047,83.6073 212.5,84.5C 211.337,47.4233 228.003,22.7566 262.5,10.5 Z"/></g>
<g><path style="opacity:1" fill="#feddc6" d="M 319.5,74.5 C 320.661,88.3272 320.827,102.327 320,116.5C 319.857,138.456 311.024,155.789 293.5,168.5C 259.184,174.424 234.017,162.091 218,131.5C 212.925,116.259 211.091,100.593 212.5,84.5C 227.047,83.6073 238.047,76.9406 245.5,64.5C 254.697,73.7681 265.697,79.9348 278.5,83C 292.078,85.1512 305.745,85.9846 319.5,85.5C 319.5,81.8333 319.5,78.1667 319.5,74.5 Z"/></g>
<g><path style="opacity:0.994" fill="#f5cbae" d="M 191.5,84.5 C 198.5,84.5 205.5,84.5 212.5,84.5C 211.091,100.593 212.925,116.259 218,131.5C 234.017,162.091 259.184,174.424 293.5,168.5C 292.016,170.074 290.349,171.407 288.5,172.5C 281.35,175.495 274.016,177.995 266.5,180C 259.131,180.726 251.798,180.559 244.5,179.5C 246.227,201.176 257.893,212.176 279.5,212.5C 264.062,226.768 248.229,227.101 232,213.5C 228.061,208.288 225.227,202.621 223.5,196.5C 223.831,188.472 223.498,180.472 222.5,172.5C 206.155,162.153 195.989,147.486 192,128.5C 191.5,113.837 191.333,99.1705 191.5,84.5 Z"/></g>
<g><path style="opacity:1" fill="#feddc6" d="M 288.5,172.5 C 288.656,180.529 288.323,188.529 287.5,196.5C 286.443,202.613 283.777,207.946 279.5,212.5C 257.893,212.176 246.227,201.176 244.5,179.5C 251.798,180.559 259.131,180.726 266.5,180C 274.016,177.995 281.35,175.495 288.5,172.5 Z"/></g>
<g><path style="opacity:1" fill="#f16573" d="M 223.5,196.5 C 225.227,202.621 228.061,208.288 232,213.5C 248.229,227.101 264.062,226.768 279.5,212.5C 283.777,207.946 286.443,202.613 287.5,196.5C 311.737,199.817 335.737,204.317 359.5,210C 375.391,217.558 386.891,229.391 394,245.5C 399.607,263.488 405.107,281.488 410.5,299.5C 398.579,303.696 386.579,307.696 374.5,311.5C 368.09,313.637 361.756,315.97 355.5,318.5C 351.106,306.152 346.606,293.819 342,281.5C 341.5,315.498 341.333,349.498 341.5,383.5C 296.832,383.667 252.165,383.5 207.5,383C 199.667,380.5 194.5,375.333 192,367.5C 191.667,340.167 191.333,312.833 191,285.5C 187.093,277.189 180.593,274.023 171.5,276C 169.808,277.401 169.141,279.234 169.5,281.5C 166.5,288.833 163.5,296.167 160.5,303.5C 159.883,303.611 159.383,303.944 159,304.5C 141.704,296.081 132.538,282.247 131.5,263C 132.751,242.501 140.751,225.168 155.5,211C 158.633,210.14 161.3,208.64 163.5,206.5C 183.421,202.735 203.421,199.402 223.5,196.5 Z"/></g>
<g><path style="opacity:0.987" fill="#db5669" d="M 163.5,206.5 C 161.3,208.64 158.633,210.14 155.5,211C 140.751,225.168 132.751,242.501 131.5,263C 132.538,282.247 141.704,296.081 159,304.5C 159.383,303.944 159.883,303.611 160.5,303.5C 159.226,308.323 157.559,312.99 155.5,317.5C 143.773,314.035 132.106,310.369 120.5,306.5C 114.022,303.896 107.355,301.896 100.5,300.5C 105.69,282.095 111.19,263.762 117,245.5C 125.999,224.661 141.499,211.661 163.5,206.5 Z"/></g>
<g><path style="opacity:0.98" fill="#db5669" d="M 341.5,383.5 C 341.5,386.833 341.5,390.167 341.5,393.5C 284.167,393.5 226.833,393.5 169.5,393.5C 169.5,356.167 169.5,318.833 169.5,281.5C 169.141,279.234 169.808,277.401 171.5,276C 180.593,274.023 187.093,277.189 191,285.5C 191.333,312.833 191.667,340.167 192,367.5C 194.5,375.333 199.667,380.5 207.5,383C 252.165,383.5 296.832,383.667 341.5,383.5 Z"/></g>
<g><path style="opacity:0.983" fill="#f6ccaf" d="M 100.5,300.5 C 107.355,301.896 114.022,303.896 120.5,306.5C 116.901,319.798 112.401,332.798 107,345.5C 92.7103,363.458 78.0437,381.125 63,398.5C 51.9186,410.472 50.5853,423.472 59,437.5C 61.7749,440.78 64.9416,443.446 68.5,445.5C 50.4105,450.704 38.2438,444.371 32,426.5C 30.5969,418.652 31.9303,411.319 36,404.5C 53.0486,385.387 69.3819,365.72 85,345.5C 86.3333,342.833 87.6667,340.167 89,337.5C 92.9462,325.164 96.7796,312.83 100.5,300.5 Z"/></g>
<g><path style="opacity:1" fill="#feddc6" d="M 410.5,299.5 C 414.437,315.248 419.604,330.581 426,345.5C 440.623,363.792 455.623,381.792 471,399.5C 480.645,410.895 481.978,423.228 475,436.5C 471.743,440.947 467.576,443.947 462.5,445.5C 458.942,443.446 455.775,440.78 453,437.5C 440.709,422.207 428.042,407.207 415,392.5C 405.257,381.36 397.257,369.026 391,355.5C 385.202,340.911 379.702,326.245 374.5,311.5C 386.579,307.696 398.579,303.696 410.5,299.5 Z"/></g>
<g><path style="opacity:0.999" fill="#feddc6" d="M 120.5,306.5 C 132.106,310.369 143.773,314.035 155.5,317.5C 149.772,333.182 143.939,348.848 138,364.5C 136.066,368.759 133.732,372.759 131,376.5C 112.76,399.131 93.9264,421.298 74.5,443C 72.5932,444.122 70.5932,444.955 68.5,445.5C 64.9416,443.446 61.7749,440.78 59,437.5C 50.5853,423.472 51.9186,410.472 63,398.5C 78.0437,381.125 92.7103,363.458 107,345.5C 112.401,332.798 116.901,319.798 120.5,306.5 Z"/></g>
<g><path style="opacity:0.983" fill="#f6ccaf" d="M 374.5,311.5 C 379.702,326.245 385.202,340.911 391,355.5C 397.257,369.026 405.257,381.36 415,392.5C 428.042,407.207 440.709,422.207 453,437.5C 455.775,440.78 458.942,443.446 462.5,445.5C 459.305,447.03 455.805,447.696 452,447.5C 448.41,447.528 444.91,447.028 441.5,446C 435.698,441.2 430.198,436.033 425,430.5C 408.288,410.79 391.955,390.79 376,370.5C 368.669,353.336 361.836,336.003 355.5,318.5C 361.756,315.97 368.09,313.637 374.5,311.5 Z"/></g>
<g><path style="opacity:0.992" fill="#72aae4" d="M 169.5,393.5 C 226.833,393.5 284.167,393.5 341.5,393.5C 341.5,393.833 341.5,394.167 341.5,394.5C 291.832,394.333 242.166,394.5 192.5,395C 186.998,398.585 181.331,401.919 175.5,405C 169.339,412.857 170.672,419.191 179.5,424C 211.656,428.266 243.823,432.432 276,436.5C 314.684,432.148 353.184,427.481 391.5,422.5C 396.408,425.452 401.408,428.119 406.5,430.5C 384.406,431.955 362.406,434.288 340.5,437.5C 311.88,440.994 283.213,443.994 254.5,446.5C 205.244,441.883 156.244,436.217 107.5,429.5C 128.202,417.485 148.869,405.485 169.5,393.5 Z"/></g>
<g><path style="opacity:1" fill="#81bbf3" d="M 341.5,394.5 C 358.463,403.314 375.129,412.648 391.5,422.5C 353.184,427.481 314.684,432.148 276,436.5C 243.823,432.432 211.656,428.266 179.5,424C 170.672,419.191 169.339,412.857 175.5,405C 181.331,401.919 186.998,398.585 192.5,395C 242.166,394.5 291.832,394.333 341.5,394.5 Z"/></g>
<g><path style="opacity:1" fill="#81bbf3" d="M 406.5,430.5 C 408.903,430.448 411.236,430.781 413.5,431.5C 419.117,455.777 410.117,471.61 386.5,479C 371.504,479.5 356.504,479.667 341.5,479.5C 341.5,486.833 341.5,494.167 341.5,501.5C 341.167,501.5 340.833,501.5 340.5,501.5C 340.5,494.167 340.5,486.833 340.5,479.5C 340.5,465.5 340.5,451.5 340.5,437.5C 362.406,434.288 384.406,431.955 406.5,430.5 Z"/></g>
<g><path style="opacity:1" fill="#82bbf3" d="M 107.5,429.5 C 156.244,436.217 205.244,441.883 254.5,446.5C 229.904,450.299 205.237,453.633 180.5,456.5C 166.945,458.724 160.278,466.724 160.5,480.5C 148.909,479.688 137.242,479.188 125.5,479C 102.89,473.21 93.2232,458.71 96.5,435.5C 96.2528,434.287 95.5862,433.62 94.5,433.5C 98.536,431.429 102.869,430.096 107.5,429.5 Z"/></g>
<g><path style="opacity:0.975" fill="#6fabe6" d="M 413.5,431.5 C 434.616,440.232 442.282,455.732 436.5,478C 431.456,490.859 422.123,498.526 408.5,501C 386.169,501.5 363.836,501.667 341.5,501.5C 341.5,494.167 341.5,486.833 341.5,479.5C 356.504,479.667 371.504,479.5 386.5,479C 410.117,471.61 419.117,455.777 413.5,431.5 Z"/></g>
<g><path style="opacity:0.976" fill="#6fabe6" d="M 94.5,433.5 C 95.5862,433.62 96.2528,434.287 96.5,435.5C 93.2232,458.71 102.89,473.21 125.5,479C 137.242,479.188 148.909,479.688 160.5,480.5C 162.3,491.632 168.633,498.632 179.5,501.5C 155.498,501.667 131.498,501.5 107.5,501C 87.0752,498.241 75.7419,486.574 73.5,466C 74.3792,451.045 81.3792,440.212 94.5,433.5 Z"/></g>
<g><path style="opacity:1" fill="#feddc7" d="M 340.5,437.5 C 340.5,451.5 340.5,465.5 340.5,479.5C 292.832,479.667 245.166,479.5 197.5,479C 187.078,474.951 181.411,467.451 180.5,456.5C 205.237,453.633 229.904,450.299 254.5,446.5C 283.213,443.994 311.88,440.994 340.5,437.5 Z"/></g>
<g><path style="opacity:1" fill="#f5cbaf" d="M 180.5,456.5 C 181.411,467.451 187.078,474.951 197.5,479C 245.166,479.5 292.832,479.667 340.5,479.5C 340.5,486.833 340.5,494.167 340.5,501.5C 286.833,501.5 233.167,501.5 179.5,501.5C 168.633,498.632 162.3,491.632 160.5,480.5C 160.278,466.724 166.945,458.724 180.5,456.5 Z"/></g>
</svg>
